<svg xmlns="http://www.w3.org/2000/svg" viewBox="0 0 243.85 202.99"><defs><style>.cls-1{fill:#fff;}</style></defs><g id="Layer_2" data-name="Layer 2"><g id="svg2"><path class="cls-1" d="M125.9,6.8A120.86,120.86,0,0,0,86.19.27c-27-.17-54,0-81-.27C1.11,0,0,1,0,5.17.19,37,.1,68.78.1,100.58.1,132.72.17,164.86,0,197c0,3.72.91,4.77,4.68,4.73q29-.28,58,0c3.81,0,4.71-1.08,4.66-4.75-.21-15.15.13-30.31-.22-45.45-.12-4.68,1.43-5.46,5.6-5.33,16,.5,32-.33,47.46-5,22.72-6.85,39.25-20.17,44.91-44.25a102.4,102.4,0,0,0-.47-48C159.5,27.84,146.26,14,125.9,6.8Zm-28.7,79C96.07,92,93.12,95.25,87.14,95.89c-5.77.62-11.63.36-17.44.58-2.54.09-2.48-1.5-2.47-3.26,0-6.32,0-12.64,0-19,0-6.16,0-12.31,0-18.47,0-1.59-.45-3.53,2.26-3.42,6,.22,12-.49,17.91.69C93,54.16,96.19,57.5,97.17,63A63.41,63.41,0,0,1,97.2,85.81Z"/><path class="cls-1" d="M210.26,135.46a33.77,33.77,0,1,0,.23,67.53,33.77,33.77,0,0,0-.23-67.53Z"/></g></g></svg>