<svg xmlns="http://www.w3.org/2000/svg" xmlns:xlink="http://www.w3.org/1999/xlink" viewBox="0 0 519 258"><defs><style>.cls-1,.cls-2,.cls-3,.cls-4{opacity:0.6;}.cls-1{fill:url(#linear-gradient);}.cls-2{fill:url(#linear-gradient-2);}.cls-3{fill:url(#linear-gradient-3);}.cls-4{fill:url(#linear-gradient-4);}</style><linearGradient id="linear-gradient" y1="129" x2="398.05" y2="129" gradientUnits="userSpaceOnUse"><stop offset="0" stop-color="#fff" stop-opacity="0.6"/><stop offset="1" stop-color="#fff" stop-opacity="0"/></linearGradient><linearGradient id="linear-gradient-2" y1="206.38" x2="97.62" y2="206.38" gradientUnits="userSpaceOnUse"><stop offset="0" stop-color="#fff"/><stop offset="1" stop-color="#fff" stop-opacity="0"/></linearGradient><linearGradient id="linear-gradient-3" x1="49.65" y1="106.68" x2="519" y2="106.68" xlink:href="#linear-gradient"/><linearGradient id="linear-gradient-4" x1="189.37" y1="129" x2="350.35" y2="129" xlink:href="#linear-gradient-2"/></defs><g id="Layer_2" data-name="Layer 2"><g id="Layer_1-2" data-name="Layer 1"><path class="cls-1" d="M398.05,258H0V0H87.61c8,12.09,14.36,25.44,21.59,36.08C116.65,47,125,55.09,137,56c21.61,1.63,29.27-22,46-18,28.55,6.75,11.37,76.7,48,119.69,1.29,1.51,2.64,3,4.07,4.43.63.64,1.27,1.26,1.92,1.88,30.36,28.69,62.49,14.26,102.44,35.79.76.4,1.52.83,2.29,1.26l0,0c3.25,1.86,6.55,4,9.91,6.34l0,0Q355.3,210,359,213C364.92,217.85,389.05,237.6,398.05,258Z"/><path class="cls-2" d="M97.62,236.78c.08,7.33-5.94,14.8-12.5,21.22H0V156.62c8.81-3.51,21.29-1.62,32.12,2A79.92,79.92,0,0,1,50,166.94a63,63,0,0,1,14.88,12.84c7.5,9.1,11.4,19.9,17.6,29.7.32.5.64,1,1,1.48C89.68,220.16,97.53,228.43,97.62,236.78Z"/><path class="cls-3" d="M519,0V166.21c-1,.56-2.07,1.07-3.14,1.56-41.68,18.85-90.94-25.46-118.09-2.12-16.43,14.13-5.17,36.22-19.79,45.25-7.57,4.67-16.27,2.27-26.28-3.47l0,0c-3.17-1.81-6.47-4-9.91-6.34l0,0-2.42-1.68c-23-16.16-52-40.42-88.61-39.38a70.49,70.49,0,0,0-15.62,2.13c-1,.25-2,.53-3,.83-33.48,10.19-48,43.24-102.32,48.66-6.12.61-27.38,2.73-46.28-.65-12-2.15-23.06-6.52-28.67-14.91-4.49-6.71-6-16.73-4.79-29.11C53.17,134.16,75,84.77,109.2,36.08,117.74,23.92,127.05,11.8,137.05,0Z"/><path class="cls-4" d="M350.35,258H248.14c-3.82-29.22-9-60.92-16-95.05-.35-1.75-.72-3.5-1.09-5.26A1625,1625,0,0,0,189.37,0h30.86C261,49.24,316,125,339.31,199.37c.05.14.09.28.13.42C345.58,219.46,349.5,239,350.35,258Z"/></g></g></svg>