<svg xmlns="http://www.w3.org/2000/svg" viewBox="0 0 878.87 488.02"><defs><style>.cls-1{fill:#fbfcff;}.cls-2{fill:#7477b0;}</style></defs><g id="Layer_2" data-name="Layer 2"><g id="Layer_1-2" data-name="Layer 1"><path class="cls-1" d="M138.16,141.09H506c59.77,0,108.4,45.42,108.4,101.23V488H39.16V404H524.44V242.32c0-9.47-8.25-17.18-18.4-17.18H138.16Z"/><path class="cls-2" d="M858.43,276.52Q838,249,799.77,239q33.86-12.73,51.28-39.55t17.43-64.69q0-65.68-49.1-100.22T676.09,0H0V257.46C0,316,48.63,363.53,108.39,363.53H439.27V275.46H108.39a18.22,18.22,0,0,1-18.39-18V88.07H500.79V488H698.88q89.16-.66,134.58-36.7t45.41-107.76Q878.87,304,858.43,276.52Zm-240-186h57.65q39.54,0,57.31,13.62t17.77,44.54q0,26.9-16.42,40.68t-55,14.12H618.44Zm126,292.44q-17.1,14.58-48.94,14.58H618.44v-117h82.45q60.66.33,60.67,61.33Q761.56,368.37,744.47,382.94Z"/></g></g></svg>