<svg xmlns="http://www.w3.org/2000/svg" viewBox="0 0 299 261.81"><defs><style>.cls-1{fill:#fff;}</style></defs><g id="Layer_2" data-name="Layer 2"><g id="Layer_1-2" data-name="Layer 1"><path class="cls-1" d="M293.85,173.86c-6.82-6.67-19.42-6.43-26.73.71-4.87,4.76-9.47,9.81-14.23,14.7-2.72,2.8-5.51,5.53-9.36,9.37-.28-3.32-.55-5-.55-6.75q0-85.47,0-170.93a35.59,35.59,0,0,0-.91-7.9C240.28,5.44,233.91.61,225.63.37c-9.06-.27-16.3,4.12-18.28,11.68a43,43,0,0,0-1,10.89q-.09,84-.06,167.92c0,2-.33,4-.61,7.26-2.38-2.16-3.75-3.29-5-4.54-6.44-6.51-12.76-13.14-19.3-19.55a18.91,18.91,0,0,0-21.27-3.3c-11.52,5.83-13.68,20.66-4.07,30.4q27.36,27.75,55.12,55.12a19,19,0,0,0,27-.24q27.67-27.45,55.13-55.12C300.73,193.37,300.89,180.74,293.85,173.86Z"/><path class="cls-1" d="M87.74,5.43c-7.2-7.08-18.82-7.27-25.85-.37Q33.19,33.26,5,62c-7,7.13-6.49,19.11.3,25.83a18.71,18.71,0,0,0,26.15-.11c5.14-5,10-10.25,15-15.36,2.62-2.68,5.31-5.31,8-8l1.57.74c.1,2.1.28,4.2.28,6.3q0,82.72,0,165.45c0,2.82.06,5.66.31,8.48C57.74,257.53,69.38,264.8,81,260.62c8.21-3,12-8.93,12-19.22q0-85.47,0-170.95c0-1.86.27-3.72.51-6.84,2.32,2,3.71,3.15,4.94,4.4,6.43,6.53,12.68,13.23,19.25,19.6,7.47,7.23,19.27,7.18,26.17.2a18.91,18.91,0,0,0,.05-26.21Q116,33.29,87.74,5.43Z"/></g></g></svg>